<svg xmlns="http://www.w3.org/2000/svg" xmlns:svg="http://www.w3.org/2000/svg" id="svg2" width="64.001" height="63.998" version="1.1"><metadata id="metadata8"/><g id="g3801" transform="matrix(0.91171267,-0.93439754,0.91171267,0.93439754,93.115545,15.138005)"><path style="fill:#000;fill-opacity:.38823529;stroke:#7d7d80;stroke-width:.031;stroke-linejoin:round;stroke-miterlimit:4;stroke-opacity:1;stroke-dasharray:none" id="path3023" d="m -60.203389,-20.61017 11.272403,-6.779312 0.234855,13.151843 z" transform="matrix(1.5424065,0,0,1.2449419,16.819863,1.8438764)"/><rect style="fill:#000;fill-opacity:.38823529;stroke:#7d7d80;stroke-width:.04319459;stroke-linejoin:round;stroke-miterlimit:4;stroke-opacity:1;stroke-dasharray:none" id="rect3021" width="42.532" height="16.147" x="-58.54" y="-32.142"/><g id="g3013" transform="translate(4.20339,-20.067796)"><rect style="fill:#6476ae;fill-opacity:1;stroke:#7d7d80;stroke-width:.03759439;stroke-linejoin:round;stroke-miterlimit:4;stroke-opacity:1;stroke-dasharray:none" id="rect3003" width="40.129" height="12.964" x="-64.061" y="-11.974"/><path style="fill:#e07373;fill-opacity:1;stroke:#7d7d80;stroke-width:.031;stroke-linejoin:round;stroke-miterlimit:4;stroke-opacity:1;stroke-dasharray:none" id="path3007" d="m -60.203389,-20.61017 11.272403,-6.779312 0.234855,13.151843 z" transform="matrix(1.4552737,0,0,0.99951775,7.2302233,15.311997)"/><path style="fill:#6476ae;fill-opacity:1;stroke:#7d7d80;stroke-width:.031;stroke-linejoin:round;stroke-miterlimit:4;stroke-opacity:1;stroke-dasharray:none" id="path3009" d="m -58.983052,-19.050848 c 0,1.160734 -0.940961,2.101695 -2.101695,2.101695 -1.160734,0 -2.101695,-0.940961 -2.101695,-2.101695 0,-1.160734 0.940961,-2.101695 2.101695,-2.101695 1.160734,0 2.101695,0.940961 2.101695,2.101695 z" transform="matrix(1.1400463,0,0,0.86093756,-8.0940607,10.93816)"/><path style="fill:#373737;fill-opacity:1;stroke:#7d7d80;stroke-width:.00420339;stroke-linejoin:round;stroke-miterlimit:4;stroke-opacity:1;stroke-dasharray:none" id="path3011" d="m -78.689016,-3.8783433 c -0.542991,-0.168577 -1.233888,-0.857088 -1.32702,-1.322437 -0.202401,-1.011322 0.879053,-1.925354 2.282558,-1.929192 2.891309,-0.0079 3.110593,3.141685 0.231761,3.328793 -0.426937,0.02775 -0.961222,-0.007 -1.187299,-0.07716 z"/></g></g></svg>